<svg xmlns="http://www.w3.org/2000/svg" viewBox="-122 -1709 2917 2917" width="1024" height="1024">
  <path fill="#111827" d="M454 0L287 0L10-740L183-740L323-366Q336-332 347-295Q358-258 370-210L370-210Q384-263 395.5-298Q407-333 419-366L419-366L557-740L726-740L454 0ZM948 0L794 0L794-500L948-500L948 0ZM870-578L870-578Q833-578 807.5-603.5Q782-629 782-666L782-666Q782-703 807.5-728Q833-753 870-753L870-753Q906-753 931.5-728Q957-703 957-666L957-666Q957-629 931.5-603.5Q906-578 870-578ZM1461-128L1461 0L1042 0L1042-128L1266-372L1042-372L1042-500L1461-500L1461-372L1231-128L1461-128ZM1709-754L1709 0L1555 0L1555-754L1709-754ZM1772-500L1937-500L2084-68L2009 110L1772-500ZM1785 240L1785 240L1785 111L1870 111Q1896 111 1913 104.5Q1930 98 1942 83Q1954 68 1964 41L1964 41L2167-500L2327-500L2073 109Q2042 185 1997.5 219.5Q1953 254 1887 254L1887 254Q1859 254 1833.5 250.5Q1808 247 1785 240Z"/>
  <circle cx="2522" cy="-240" r="140" fill="#E8553D"/>
</svg>
